<?xml version="1.0" encoding="UTF-8"?>
<!DOCTYPE svg PUBLIC "-//W3C//DTD SVG 1.1//EN" "http://www.w3.org/Graphics/SVG/1.1/DTD/svg11.dtd">
<svg xmlns="http://www.w3.org/2000/svg" viewBox="0 0 1280 370" height="100" fill="#53962f">
  <path
    fill-rule="evenodd"
    d="M245.8 1.2h-41.1l-33.5 122.3c-17.8-22-45.2-35.8-75.8-35.8-49.9 0-94.6 40.9-94.6 96.3 0 53.7 42 96 95 96 47.1 0 83.6-30.9 93.8-72.5l0 0L245.8 1.2zM96.1 236.7c-29.6 0-49.2-22-49.2-53 0-30.3 20.6-52.6 49.2-52.6 29.9 0 50.2 22 50.2 53C146.3 216 124.3 236.7 96.1 236.7zM235.7 188 235.7 275.2 281.5 275.2 281.5 92.5 261.9 92.5zM359.9 196.1c-29.2-14.8-44-32.7-44-55.7 0-28.6 24.1-52.6 59.2-52.6 23.7 0 45.4 10.7 60.2 30.3L407 146.5c-10.3-10.3-20.6-16.9-31.6-16.9-9.3 0-16.5 3.8-16.5 11 0 6.9 6.5 10 16.5 15.1l16.9 8.6c30.3 15.5 46.4 31.3 46.4 58.5 0 32.7-25.8 57.1-65.7 57.1-26.5 0-48.2-10.7-64-31.3l28.2-30.9c10.7 12.4 26.1 21.3 38.2 21.3 11.3 0 20.3-6.5 20.3-14.8 0-7.9-7.6-13.8-20.3-20.3L359.9 196.1zM646.8 241.8c-19.6 25.5-47.1 38.2-82.9 38.2-62.3 0-102.5-42.3-102.5-95.6 0-54.7 42.7-96.7 103.2-96.7 35.8 0 66 14.8 84.3 41.6l-38.2 21c-13.1-13.8-25.8-20.6-45.7-20.6-35.1 0-57.4 23.7-57.4 55.4 0 31 21.7 53 55.4 53 20.3 0 36.5-6.9 47.8-21L646.8 241.8zM860.6 183.7c0 53-40.9 96.3-96.6 96.3-53 0-94.9-42.3-94.9-96 0-55.4 44.7-96.3 94.6-96.3C817 87.7 860.6 129.7 860.6 183.7zM715.1 183.7c0 30.9 19.6 53 49.2 53 28.2 0 50.2-20.6 50.2-52.6 0-30.9-20.3-53-50.2-53C735.8 131 715.1 153.4 715.1 183.7zM1054.4 142.4v-49.9h-45.7v97.3c0 30.9-10 47.8-34.4 47.8-24.1 0-34.4-17.2-34.4-49.9v-95.3h-45.7V176c0 15.1-.7 23.7 1.7 38.5 7.2 42.7 34.4 65 78.4 65 18.4 0 33.4-3.6 45.8-11.8L1054.4 142.4zM1184.3 87.5c-47.1 0-83.6 30.9-93.8 72.5l0 0-56.2 206.3h41.1l33.5-122.3c17.8 22 45.2 35.8 75.8 35.8 49.9 0 94.6-40.9 94.6-96.3C1279.2 129.8 1237.2 87.5 1184.3 87.5zM1183.9 236.5c-29.9 0-50.2-22-50.2-53 0-32 22-52.6 50.2-52.6 29.6 0 49.2 22 49.2 53C1233.1 214.1 1212.5 236.5 1183.9 236.5z"
  />
</svg>